<svg width="50" height="51" viewBox="0 0 50 51" fill="none" xmlns="http://www.w3.org/2000/svg">
<path d="M16.3624 2.24278C16.0146 2.24024 15.6535 2.31162 15.3024 2.45118C14.8261 2.64063 14.3871 2.94395 14.0665 3.38203C14.7497 3.61407 15.3618 4.06045 15.8699 4.61075C16.694 5.50313 17.3452 6.68867 17.9201 8.00528C19.0699 10.6384 19.8914 13.8226 20.5461 16.0966L18.8572 17.1689C18.1909 14.8548 17.3725 11.1434 16.3094 8.70869C15.7778 7.49131 15.1792 6.45352 14.5786 5.80323C14.2102 5.4042 13.8785 5.16026 13.5444 5.04483C13.5384 5.32364 13.5613 5.62549 13.6194 5.95274L16.9837 18.9397L18.0687 18.2024C16.554 20.239 15.8457 22.9284 16.3997 25.6565C16.8655 25.8304 17.6235 26.0202 18.553 26.1696C18.4898 25.952 18.4576 25.7266 18.4574 25.5C18.4574 24.1621 19.5607 23.0588 20.8986 23.0588C22.2365 23.0588 23.3398 24.1621 23.3398 25.5C23.3398 25.8733 23.2538 26.2282 23.1009 26.5462C23.6843 26.5642 24.2767 26.5744 24.8713 26.5744C25.5495 26.5744 26.2285 26.5617 26.8959 26.5383C26.7409 26.2141 26.6605 25.8593 26.6605 25.5C26.6605 24.1621 27.7639 23.0588 29.1018 23.0588C30.4396 23.0588 31.543 24.1621 31.543 25.5C31.543 25.7223 31.5119 25.9378 31.4551 26.1432C32.3566 25.9974 33.1042 25.8177 33.6031 25.6403C34.1556 22.8785 33.3844 20.1527 31.7923 18.1077L33.0168 18.9398L36.3811 5.95274C36.4391 5.62559 36.462 5.32364 36.456 5.04483C36.1219 5.16026 35.7902 5.4042 35.4218 5.80323C34.8212 6.45362 34.2226 7.49131 33.691 8.70869C32.6279 11.1434 31.8095 14.8548 31.1432 17.1689L29.4542 16.0966C30.109 13.8226 30.9305 10.6384 32.0803 8.00528C32.6552 6.68867 33.3063 5.50313 34.1305 4.61075C34.6386 4.06045 35.2507 3.61407 35.9339 3.38203C35.6133 2.94395 35.1743 2.64073 34.6979 2.45118C33.5745 2.0044 32.3493 2.25596 31.7799 3.39483L31.7515 3.45166L31.7152 3.50371C31.0733 4.42637 30.4045 6.38379 29.807 8.5669C29.2098 10.7501 28.6434 13.1765 27.9852 15.2222L27.1486 14.9531L27.1604 14.9611C26.4366 14.761 25.689 14.6597 24.938 14.66C24.3282 14.66 23.7358 14.7273 23.1649 14.8523L22.0152 15.2223C21.357 13.1765 20.7906 10.7501 20.1933 8.567C19.5959 6.38379 18.9271 4.42637 18.2852 3.50371L18.249 3.45166L18.2205 3.39483C17.8291 2.61182 17.1276 2.24834 16.3624 2.24278ZM15.2399 19.2166C12.7766 19.5607 10.553 20.0267 8.67998 20.5886C6.61816 21.2071 4.97568 21.9448 3.91289 22.6986C2.8502 23.4525 2.44141 24.1438 2.44141 24.7188C2.44141 25.2938 2.8502 25.9851 3.91289 26.7389C4.97568 27.4926 6.61816 28.2304 8.67998 28.8489C12.8035 30.0859 18.5993 30.8713 25.0002 30.8713C31.4011 30.8713 37.1969 30.0859 41.3205 28.8489C43.3822 28.2304 45.0246 27.4927 46.0875 26.7389C47.1502 25.985 47.559 25.2938 47.559 24.7188C47.559 24.1438 47.1502 23.4524 46.0875 22.6986C45.0247 21.9449 43.3822 21.2071 41.3204 20.5886C39.4474 20.0267 37.2237 19.5607 34.7605 19.2166L34.6728 19.5554C34.8551 19.9844 35.0104 20.4245 35.1378 20.873C39.1176 21.6527 41.4464 22.8474 41.4539 24.113C41.4475 25.6982 37.8113 27.1421 32.1023 27.8264C31.6375 27.9041 31.1448 27.9724 30.6194 28.0331C28.8874 28.2337 26.8748 28.3319 24.8713 28.3319C22.8677 28.3319 20.8767 28.2337 19.1853 28.0328C18.527 27.9546 17.9209 27.8682 17.3692 27.7609C11.9496 27.0503 8.55137 25.6452 8.54648 24.113C8.54814 22.8481 10.8687 21.6534 14.8411 20.8724C14.9697 20.408 15.1282 19.9524 15.3154 19.5084L15.2399 19.2166ZM12.9425 31.6414L12.7304 34.6121C20.5565 36.484 28.6437 36.8244 37.27 34.6126L37.0579 31.6415C33.5083 32.2715 29.3956 32.6288 25.0002 32.6288C20.6047 32.6288 16.4921 32.2715 12.9426 31.6415L12.9425 31.6414ZM12.6036 36.3875L11.8272 47.256C11.919 47.3292 12.1378 47.4567 12.4591 47.5791C13.1196 47.8308 14.1776 48.0732 15.461 48.2635C18.0276 48.6437 21.5171 48.84 25.0002 48.84C28.4833 48.84 31.9728 48.6438 34.5395 48.2635C35.8228 48.0733 36.8808 47.8308 37.5414 47.5791C37.8627 47.4567 38.0812 47.3292 38.1731 47.256L37.3972 36.3919C28.6908 38.5676 20.4717 38.2314 12.6036 36.3875Z" fill="#FBB03B"/>
</svg>
